<svg xmlns="http://www.w3.org/2000/svg" version="1.1" class="print" baseProfile="tiny" x="0" y="0" viewBox="0 0 566.9 566.9" xml:space="preserve">
<g id="print" fill="#007acc">
  <path d="M119.3 266.8c2.6 1.3 5.6 2 8.8 2 2.8 0 5.3-0.5 7.7-1.5 1.7-0.7 3.1-1.7 4.2-3 0.8-0.9 1.1-1.7 1.1-2.4s-0.3-1.4-0.8-2c-0.6-0.6-1.2-0.8-1.9-0.8 -0.4 0-0.8 0.1-1.1 0.3 -0.3 0.2-0.8 0.5-1.3 1.1 -0.9 0.9-1.8 1.6-2.6 1.9 -1.4 0.6-3.1 0.8-5.2 0.8 -3.4 0-6.1-0.9-8-2.7 -1.9-1.8-2.9-4-2.9-6.6v-3.6c0-2.2 0.5-4.1 1.6-5.8 1.1-1.6 2.3-2.8 3.7-3.5 1.4-0.7 2.9-1.1 4.5-1.1 1.3 0 2.6 0.2 4 0.7 1.3 0.5 2.3 1.1 3.1 1.9 0.4 0.4 0.6 1 0.8 1.7 0.2 1.1 0.5 1.9 1 2.3 0.4 0.4 1 0.6 1.8 0.6 0.8 0 1.5-0.3 2-0.8 0.5-0.6 0.8-1.5 0.8-2.8v-4.7c0-1.3-0.3-2.3-0.8-2.8 -0.5-0.6-1.2-0.8-2-0.8 -0.5 0-0.9 0.1-1.3 0.3 -0.4 0.2-0.8 0.6-1.1 1 -1.2-0.8-2.5-1.3-3.9-1.7 -1.4-0.4-2.9-0.6-4.5-0.6 -2.7 0-5.2 0.7-7.5 2 -2.4 1.3-4.2 3.3-5.5 5.7s-2 5.2-2 8v3.7c0 2.7 0.7 5.3 2.2 7.6S117.2 265.7 119.3 266.8zM176.9 259c0-2-0.5-3.6-1.5-5.1 -1-1.4-2.3-2.5-3.8-3.1 -1.5-0.7-3.7-1.3-6.5-1.8 -2.8-0.6-4.5-1-5.1-1.2 -0.9-0.4-1.6-0.9-2.1-1.5 -0.5-0.6-0.7-1.3-0.7-2 0-1 0.6-2 1.7-2.9 1.2-0.9 2.7-1.4 4.7-1.4 1.4 0 2.6 0.2 3.6 0.7 1 0.5 1.8 1 2.3 1.7 0.3 0.4 0.6 1 0.8 2 0.2 0.9 0.5 1.5 0.9 1.8 0.5 0.4 1.1 0.6 1.8 0.6 0.8 0 1.5-0.3 2-0.8 0.5-0.6 0.8-1.5 0.8-2.8v-4.1c0-1.3-0.3-2.2-0.8-2.8 -0.5-0.6-1.2-0.8-2-0.8 -0.7 0-1.4 0.3-2.1 1 -1-0.6-2.1-1.1-3.3-1.4 -1.2-0.3-2.5-0.5-3.9-0.5 -3.5 0-6.4 1-8.6 3 -2.2 2-3.3 4.3-3.3 6.9 0 1.7 0.4 3.2 1.3 4.6 0.9 1.4 2.1 2.5 3.7 3.3 1.5 0.8 3.8 1.5 6.8 2 2.5 0.5 4.1 0.8 4.8 1.1 1.1 0.4 1.9 0.9 2.4 1.5 0.5 0.6 0.7 1.2 0.7 1.9 0 1-0.5 1.9-1.5 2.6 -1.6 1.1-3.6 1.7-6 1.7 -1.6 0-3-0.3-4.4-0.9 -1.3-0.6-2.2-1.1-2.8-1.7 -0.3-0.3-0.5-0.8-0.7-1.6 -0.2-0.8-0.6-1.4-1-1.7 -0.4-0.3-1-0.5-1.6-0.5 -0.8 0-1.5 0.3-2 0.8 -0.5 0.6-0.8 1.5-0.8 2.8v3.7c0 1.3 0.3 2.2 0.8 2.8 0.5 0.6 1.2 0.8 2 0.8 0.4 0 0.8-0.1 1.1-0.2s0.7-0.5 1.2-1.1c1.4 0.7 2.8 1.3 4.2 1.7 1.4 0.4 2.9 0.6 4.4 0.6 3.9 0 7.2-1.1 9.7-3.2C175.9 263.9 176.9 261.7 176.9 259zM190.5 267.9c0.4 0 0.8-0.1 1.1-0.2s0.7-0.5 1.2-1.1c1.4 0.7 2.8 1.3 4.2 1.7 1.4 0.4 2.9 0.6 4.4 0.6 3.9 0 7.2-1.1 9.7-3.2 1.9-1.6 2.9-3.8 2.9-6.5 0-2-0.5-3.6-1.5-5.1 -1-1.4-2.3-2.5-3.8-3.1 -1.5-0.7-3.7-1.3-6.5-1.8 -2.8-0.6-4.5-1-5.1-1.2 -0.9-0.4-1.6-0.9-2.1-1.5 -0.5-0.6-0.7-1.3-0.7-2 0-1 0.6-2 1.7-2.9 1.2-0.9 2.7-1.4 4.7-1.4 1.4 0 2.6 0.2 3.6 0.7s1.8 1 2.3 1.7c0.3 0.4 0.6 1 0.8 2 0.2 0.9 0.5 1.5 0.9 1.8 0.5 0.4 1.1 0.6 1.8 0.6 0.8 0 1.5-0.3 2-0.8 0.5-0.6 0.8-1.5 0.8-2.8v-4.1c0-1.3-0.3-2.2-0.8-2.8 -0.5-0.6-1.2-0.8-2-0.8 -0.7 0-1.4 0.3-2.1 1 -1-0.6-2.1-1.1-3.3-1.4 -1.2-0.3-2.5-0.5-3.9-0.5 -3.5 0-6.4 1-8.6 3 -2.2 2-3.3 4.3-3.3 6.9 0 1.7 0.4 3.2 1.3 4.6 0.9 1.4 2.1 2.5 3.7 3.3 1.5 0.8 3.8 1.5 6.8 2 2.5 0.5 4.1 0.8 4.8 1.1 1.1 0.4 1.9 0.9 2.4 1.5 0.5 0.6 0.7 1.2 0.7 1.9 0 1-0.5 1.9-1.5 2.6 -1.6 1.1-3.6 1.7-6 1.7 -1.6 0-3-0.3-4.4-0.9 -1.3-0.6-2.2-1.1-2.8-1.7 -0.3-0.3-0.5-0.8-0.7-1.6 -0.2-0.8-0.6-1.4-1-1.7 -0.4-0.3-1-0.5-1.6-0.5 -0.8 0-1.5 0.3-2 0.8 -0.5 0.6-0.8 1.5-0.8 2.8v3.7c0 1.3 0.3 2.2 0.8 2.8C189 267.6 189.7 267.9 190.5 267.9zM266.8 262.5c-1.3 0-2.3 0.3-2.8 0.8 -0.6 0.5-0.8 1.2-0.8 2 0 0.8 0.3 1.5 0.8 2 0.6 0.5 1.5 0.8 2.8 0.8h16.6c1.3 0 2.3-0.3 2.8-0.8 0.6-0.5 0.8-1.2 0.8-2 0-0.8-0.3-1.5-0.8-2 -0.6-0.5-1.5-0.8-2.8-0.8h-5.6v-21.5h5.6c1.3 0 2.3-0.3 2.8-0.8 0.6-0.5 0.8-1.2 0.8-2 0-0.8-0.3-1.5-0.8-2 -0.6-0.5-1.5-0.8-2.8-0.8l-16.6 0c-1.3 0-2.3 0.3-2.8 0.8 -0.6 0.5-0.8 1.2-0.8 2 0 0.8 0.3 1.5 0.8 2 0.6 0.5 1.5 0.8 2.8 0.8h5.6v21.5H266.8zM320.2 250.9c-1.5-0.7-3.7-1.3-6.5-1.8 -2.8-0.6-4.5-1-5.1-1.2 -0.9-0.4-1.6-0.9-2.1-1.5 -0.5-0.6-0.7-1.3-0.7-2 0-1 0.6-2 1.7-2.9 1.2-0.9 2.7-1.4 4.7-1.4 1.4 0 2.6 0.2 3.6 0.7s1.8 1 2.3 1.7c0.3 0.4 0.6 1 0.8 2 0.2 0.9 0.5 1.5 0.9 1.8 0.5 0.4 1.1 0.6 1.8 0.6 0.8 0 1.5-0.3 2-0.8 0.5-0.6 0.8-1.5 0.8-2.8v-4.1c0-1.3-0.3-2.2-0.8-2.8 -0.5-0.6-1.2-0.8-2-0.8 -0.7 0-1.4 0.3-2.1 1 -1-0.6-2.1-1.1-3.3-1.4 -1.2-0.3-2.5-0.5-3.9-0.5 -3.5 0-6.4 1-8.6 3 -2.2 2-3.3 4.3-3.3 6.9 0 1.7 0.4 3.2 1.3 4.6 0.9 1.4 2.1 2.5 3.7 3.3 1.5 0.8 3.8 1.5 6.8 2 2.5 0.5 4.1 0.8 4.8 1.1 1.1 0.4 1.9 0.9 2.4 1.5 0.5 0.6 0.7 1.2 0.7 1.9 0 1-0.5 1.9-1.5 2.6 -1.6 1.1-3.6 1.7-6 1.7 -1.6 0-3-0.3-4.4-0.9 -1.3-0.6-2.2-1.1-2.8-1.7 -0.3-0.3-0.5-0.8-0.7-1.6 -0.2-0.8-0.6-1.4-1-1.7 -0.4-0.3-1-0.5-1.6-0.5 -0.8 0-1.5 0.3-2 0.8 -0.5 0.6-0.8 1.5-0.8 2.8v3.7c0 1.3 0.3 2.2 0.8 2.8 0.5 0.6 1.2 0.8 2 0.8 0.4 0 0.8-0.1 1.1-0.2s0.7-0.5 1.2-1.1c1.4 0.7 2.8 1.3 4.2 1.7 1.4 0.4 2.9 0.6 4.4 0.6 3.9 0 7.2-1.1 9.7-3.2 1.9-1.6 2.9-3.8 2.9-6.5 0-2-0.5-3.6-1.5-5.1C323 252.6 321.7 251.5 320.2 250.9zM159.6 329.1c-0.6-0.4-1.9-0.6-3.8-0.6l-16.4-40.6 -17.9 0c-2 0-3.4 0.4-4.3 1.1 -0.8 0.8-1.3 1.8-1.3 3 0 1.2 0.4 2.2 1.3 3 0.8 0.8 2.3 1.1 4.3 1.1h5.4l-13 32.3c-2-0.1-3.5 0.3-4.4 1.1s-1.3 1.8-1.3 3c0 1.2 0.4 2.2 1.3 3 0.8 0.8 2.3 1.1 4.3 1.1h11.1c2 0 3.4-0.4 4.3-1.1 0.8-0.8 1.3-1.8 1.3-3 0-1.2-0.4-2.2-1.3-3 -0.8-0.8-2.3-1.1-4.3-1.1h-2l2-5h20.1l2 5h-2c-2 0-3.4 0.4-4.3 1.1 -0.8 0.8-1.3 1.8-1.3 3 0 1.2 0.4 2.2 1.3 3 0.8 0.8 2.3 1.1 4.3 1.1h11.1c2 0 3.4-0.4 4.2-1.1 0.8-0.8 1.2-1.8 1.2-3C161.4 331.2 160.8 330 159.6 329.1zM128.1 315.2l6.7-16.4 6.7 16.4H128.1zM210.7 287.9l-11 0c-2 0-3.4 0.4-4.3 1.1s-1.3 1.8-1.3 3c0 1.2 0.4 2.2 1.3 3 0.8 0.8 2.3 1.1 4.3 1.1h4.3l-2.7 23.1 -6.4-19.2h-8.6l-6.5 19.2 -2.7-23.1h4.3c2 0 3.4-0.4 4.3-1.1 0.8-0.8 1.3-1.8 1.3-3 0-1.2-0.4-2.2-1.3-3 -0.8-0.8-2.3-1.1-4.3-1.1l-11 0c-2 0-3.4 0.4-4.3 1.2 -0.8 0.8-1.3 1.8-1.3 3.1 0 1.1 0.3 2 1 2.7s1.6 1.1 2.9 1.3l4.9 40.6h9.3l7.7-23.5 7.9 23.5h9.1l4.8-40.6c1.3-0.2 2.2-0.7 2.9-1.5 0.7-0.8 1-1.7 1-2.7 0-1.2-0.4-2.2-1.3-3C214.1 288.3 212.7 287.9 210.7 287.9zM263 318.5c-1.2 0-2.2 0.4-3 1.3 -0.8 0.8-1.1 2.3-1.1 4.3v4.5h-21.1v-12.1h7.3c0 2.2 0.2 3.6 0.6 4.2 0.8 1.3 2 2 3.5 2 1.5 0 2.6-0.6 3.5-1.9 0.4-0.6 0.6-1.8 0.6-3.6v-9.5c0-2-0.4-3.4-1.1-4.3 -0.8-0.8-1.8-1.3-3-1.3 -1.5 0-2.7 0.7-3.5 2 -0.4 0.6-0.6 2-0.6 4.2h-7.3v-11.9H257v4.3c0 2 0.4 3.4 1.1 4.2 0.8 0.8 1.8 1.2 3 1.2 1.2 0 2.2-0.4 3-1.3 0.8-0.8 1.1-2.2 1.1-4.2v-12.6l-37.1 0c-2 0-3.4 0.4-4.3 1.1s-1.3 1.8-1.3 3c0 1.2 0.4 2.2 1.3 3 0.8 0.8 2.3 1.1 4.3 1.1h1.3v32.3h-1.3c-2 0-3.4 0.4-4.2 1.1 -0.9 0.8-1.3 1.8-1.3 3 0 1.2 0.4 2.2 1.3 3 0.8 0.8 2.3 1.1 4.3 1.1h38.9V324c0-2-0.4-3.4-1.1-4.3C265.2 318.9 264.2 318.5 263 318.5zM313.8 311.1c-2.3-1-5.5-1.9-9.8-2.7 -4.2-0.8-6.8-1.4-7.7-1.8 -1.4-0.5-2.4-1.3-3.1-2.2 -0.7-1-1.1-1.9-1.1-3 0-1.5 0.9-2.9 2.6-4.3 1.7-1.4 4.1-2.1 7.1-2.1 2 0 3.8 0.3 5.4 1 1.6 0.7 2.7 1.6 3.5 2.6 0.5 0.6 0.8 1.6 1.1 2.9 0.3 1.4 0.7 2.3 1.3 2.7 0.8 0.6 1.6 0.9 2.7 0.9 1.2 0 2.2-0.4 3-1.3 0.8-0.8 1.1-2.3 1.1-4.3v-6.2c0-2-0.4-3.4-1.1-4.2 -0.8-0.8-1.8-1.3-3-1.3 -1.1 0-2.1 0.5-3.2 1.6 -1.5-1-3.1-1.7-4.9-2.2 -1.8-0.5-3.8-0.7-5.9-0.7 -5.3 0-9.6 1.5-12.9 4.5 -3.3 3-5 6.4-5 10.4 0 2.5 0.7 4.8 2 7 1.3 2.2 3.2 3.8 5.5 5 2.3 1.2 5.7 2.2 10.2 3 3.7 0.7 6.1 1.2 7.2 1.7 1.6 0.6 2.8 1.3 3.5 2.2 0.7 0.9 1.1 1.9 1.1 2.9 0 1.5-0.8 2.8-2.3 3.9 -2.4 1.7-5.4 2.6-9.1 2.6 -2.4 0-4.5-0.4-6.5-1.3 -2-0.9-3.4-1.7-4.2-2.5 -0.4-0.4-0.7-1.2-1.1-2.4 -0.3-1.2-0.9-2-1.5-2.6 -0.7-0.5-1.5-0.8-2.4-0.8 -1.3 0-2.3 0.4-3 1.3 -0.8 0.8-1.1 2.3-1.1 4.3v5.6c0 2 0.4 3.4 1.1 4.2 0.8 0.8 1.8 1.3 3 1.3 0.6 0 1.2-0.1 1.6-0.4s1-0.8 1.8-1.7c2 1.1 4.1 1.9 6.3 2.5s4.4 0.8 6.7 0.8c5.9 0 10.8-1.6 14.6-4.8 2.9-2.4 4.3-5.7 4.3-9.8 0-2.9-0.8-5.5-2.3-7.6C318 313.6 316.1 312.1 313.8 311.1zM357.7 286.7c-2.1 0-4.2 0.3-6.2 0.9V96.5h-261v261h261V337c2 0.6 4 0.9 6.2 0.9 6.1 0 11.5-2.4 16.2-7.3 4.7-4.9 7-11 7-18.3 0-7.4-2.3-13.5-7-18.4C369.2 289.1 363.8 286.7 357.7 286.7zM347.5 324.9c0 0-0.1-0.1-0.1-0.1 -3-3.3-4.6-7.4-4.6-12.4 0-5 1.5-9.1 4.6-12.5 0 0 0.1-0.1 0.1-0.1V324.9zM347.5 353.5h-253v-253h253v188.8c-1.6 0.9-3.2 2-4.7 3.4 -5.5 5.1-8.2 11.6-8.2 19.6s2.7 14.5 8.2 19.5c1.5 1.4 3.1 2.5 4.7 3.4V353.5zM368 324.8c-3 3.3-6.5 4.9-10.4 4.9 -2.2 0-4.3-0.6-6.2-1.6v-31.5c1.9-1.1 4-1.6 6.2-1.6 3.9 0 7.3 1.6 10.4 4.9 3 3.3 4.6 7.4 4.6 12.5S371.1 321.5 368 324.8zM435 328.5v-32.3c1.4-0.1 2.5-0.6 3.3-1.3 0.8-0.8 1.1-1.7 1.1-2.8 0-1.2-0.4-2.2-1.3-3 -0.8-0.8-2.3-1.1-4.3-1.1l-9.1 0 -11 24.9 -11.2-24.9 -9.1 0c-2 0-3.4 0.4-4.3 1.1 -0.8 0.8-1.3 1.8-1.3 3 0 1.1 0.4 2.1 1.1 2.8 0.7 0.8 1.8 1.2 3.3 1.3v32.3c-1.7 0-3 0.4-3.9 1.1 -0.8 0.8-1.2 1.8-1.2 3 0 1.2 0.4 2.2 1.3 3 0.8 0.8 2.3 1.1 4.3 1.1h10.8c2 0 3.4-0.4 4.3-1.1 0.8-0.8 1.3-1.8 1.3-3 0-1.2-0.4-2.2-1.3-3 -0.8-0.8-2.3-1.1-4.3-1.1h-3v-24.6l9.6 21.3h7.2l9.5-21.3v24.6h-3c-2 0-3.4 0.4-4.2 1.1 -0.8 0.8-1.3 1.8-1.3 3 0 1.2 0.4 2.2 1.3 3 0.8 0.8 2.2 1.1 4.2 1.1h10.9c2 0 3.4-0.4 4.3-1.1 0.8-0.8 1.3-1.8 1.3-3 0-1.2-0.4-2.2-1.2-3C438 328.9 436.7 328.5 435 328.5zM488.8 319.8c-0.8-0.8-1.8-1.3-3-1.3 -1.2 0-2.2 0.4-3 1.3 -0.8 0.8-1.1 2.3-1.1 4.3v4.5h-21.1v-12.1h7.3c0 2.2 0.2 3.6 0.6 4.2 0.8 1.3 2 2 3.5 2 1.5 0 2.6-0.6 3.5-1.9 0.4-0.6 0.6-1.8 0.6-3.6v-9.5c0-2-0.4-3.4-1.1-4.3 -0.8-0.8-1.8-1.3-3-1.3 -1.5 0-2.7 0.7-3.5 2 -0.4 0.6-0.6 2-0.6 4.2h-7.3v-11.9h19.3v4.3c0 2 0.4 3.4 1.1 4.2 0.8 0.8 1.8 1.2 3 1.2 1.2 0 2.2-0.4 3-1.3 0.8-0.8 1.1-2.2 1.1-4.2v-12.6l-37.1 0c-2 0-3.4 0.4-4.3 1.1s-1.3 1.8-1.3 3c0 1.2 0.4 2.2 1.3 3 0.8 0.8 2.3 1.1 4.3 1.1h1.3v32.3h-1.3c-2 0-3.4 0.4-4.2 1.1 -0.9 0.8-1.3 1.8-1.3 3 0 1.2 0.4 2.2 1.3 3 0.8 0.8 2.3 1.1 4.3 1.1H490V324C490 322 489.6 320.6 488.8 319.8z"></path>
</g>
</svg>
